<svg xmlns="http://www.w3.org/2000/svg" viewBox="0 0 456 24" width="456" height="24">
	<!--play-pause-->
	<path id="play-pause" d="M8 5v7h11L8 5m0 7v7l11-7H8M32.266242 4.831197l-.355405 6.891842 11.083273.571552.006746-.130826-10.734614-7.332568m-.362203 7.023667l-.355405 6.891842 11.431931-6.189464.006747-.130826-11.083273-.571552M57.49857 4.202042l-1.759224 6.231433 11.092431 3.131555.190458-.67463-9.523665-8.688358m-1.94941 6.905101l-1.759225 6.231433 12.661198-2.425247.190458-.67463-11.092432-3.131556M84.26084 3.538251l-3.703604 4.237653 9.315608 8.141611 1.203606-1.377162-6.81561-11.002102M79.352973 9.15382l-3.703604 4.237653 11.815606 5.28112 1.203606-1.377162-9.315608-8.141611M110.792716 3.693788l-4.362473 2.26408 6.028027 11.614917 2.46837-1.28106-4.133924-12.597937m-6.829955 3.544679l-4.362472 2.26408 7.92213 10.631896 2.468369-1.28106-6.028027-11.614916M136.314794 4.141359l-4.342896 1.135948 3.418978 13.071255 3.24-.84747-2.316082-13.359733m-7.581928 1.983164l-4.342895 1.135947 4.521873 12.782777 3.24-.84747-3.418978-13.071254M161.192662 4.535742l-4.204234.525914 1.708196 13.655574 3.654519-.45715-1.158481-13.724338m-7.859745.983187l-4.204234.525914 2.257913 13.58681 3.654518-.45715-1.708197-13.655574M185.68534 4.80676l-4.088082.20057.681434 13.889293 3.870345-.189886-.463696-13.899977m-7.959427.390504l-4.088082.200569.899172 13.878611 3.870344-.189886-.681434-13.889294M209.929487 4.955025l-4.020754.044448.154524 13.978146 3.971757-.043906-.105527-13.978688m-7.992511.088355l-4.020755.044448.20352 13.977604 3.971758-.043906-.154523-13.978146M234 5h-4v14h4V5m-8 0h-4v14h4V5M258 5h-4v14h4V5m-8 0h-4v14h4V5M282 5h-4v14h4V5m-8 0h-4v14h4V5M306 5h-4v14h4V5m-8 0h-4v14h4V5M330 5h-4v14h4V5m-8 0h-4v14h4V5M354 5h-4v14h4V5m-8 0h-4v14h4V5M378 5h-4v14h4V5m-8 0h-4v14h4V5M402 5h-4v14h4V5m-8 0h-4v14h4V5M426 5h-4v14h4V5m-8 0h-4v14h4V5M450 5h-4v14h4V5m-8 0h-4v14h4V5" fill="#000000"/>

</svg>
