<svg xmlns="http://www.w3.org/2000/svg" width="456" height="24"><path d="M8 5v7h11L8 5m0 7v7l11-7H8m24.266-7.169l-.355 6.892 11.083.572.007-.131L32.266 4.83m-.362 7.024l-.355 6.892 11.432-6.19.006-.13-11.083-.572m25.595-7.653l-1.76 6.231 11.093 3.132.19-.675L57.5 4.202m-1.95 6.905l-1.76 6.232 12.662-2.426.19-.674-11.092-3.132m28.712-7.569l-3.704 4.238 9.316 8.142 1.203-1.378-6.815-11.002m-4.908 5.616l-3.704 4.237 11.816 5.282 1.204-1.378-9.316-8.141m31.44-5.46l-4.363 2.264 6.028 11.615 2.469-1.281-4.134-12.598m-6.83 3.544L99.6 9.503l7.922 10.631 2.469-1.28-6.028-11.616m32.352-3.097l-4.343 1.136 3.419 13.072 3.24-.848-2.316-13.36m-7.582 1.984L124.39 7.26l4.522 12.783 3.24-.847-3.42-13.071m32.46-1.59l-4.204.527 1.709 13.655 3.654-.457-1.158-13.724m-7.86.983l-4.204.526 2.258 13.587 3.654-.457-1.708-13.656m32.352-.712l-4.088.2.682 13.89 3.87-.19-.464-13.9m-7.96.39l-4.087.2.899 13.88 3.87-.19-.681-13.89m32.203-.242l-4.02.044.154 13.979 3.972-.044-.106-13.979m-7.992.088l-4.02.045.203 13.977 3.971-.043-.154-13.979M234 5h-4v14h4V5m-8 0h-4v14h4V5m32 0h-4v14h4V5m-8 0h-4v14h4V5m32 0h-4v14h4V5m-8 0h-4v14h4V5m32 0h-4v14h4V5m-8 0h-4v14h4V5m32 0h-4v14h4V5m-8 0h-4v14h4V5m32 0h-4v14h4V5m-8 0h-4v14h4V5m32 0h-4v14h4V5m-8 0h-4v14h4V5m32 0h-4v14h4V5m-8 0h-4v14h4V5m32 0h-4v14h4V5m-8 0h-4v14h4V5m32 0h-4v14h4V5m-8 0h-4v14h4V5"/></svg>